{"title":"Jurassic World 2015 TS READNFO x264-MenaceIISociety","uid":12027401,"size":1364297871,"categoryP":"video","categoryS":"movies","magnet":"?xt=urn:btih:3e70477894e42f456a47f7bc672348c786b9e321&amp;dn=Jurassic+World+2015+TS+READNFO+x264-MenaceIISociety&amp;tr=udp%3A%2F%2Ftracker.openbittorrent.com%3A80&amp;tr=udp%3A%2F%2Fopen.demonii.com%3A1337&amp;tr=udp%3A%2F%2Ftracker.coppersurfer.tk%3A6969&amp;tr=udp%3A%2F%2Fexodus.desync.com%3A6969","seeders":5,"leechers":3,"uploader":"makintos13","files":3,"time":1434549673,"description":" &lt;a href=&quot;http://imgmak.com/v2&quot; rel=&quot;nofollow&quot; target=&quot;_NEW&quot;&gt;http://imgmak.com/v2&lt;/a&gt;\n\nscrens:\n &lt;a href=&quot;\nhttp://imgmak.com/vF&quot; rel=&quot;nofollow&quot; target=&quot;_NEW&quot;&gt;\nhttp://imgmak.com/vF&lt;/a&gt; &lt;a href=&quot;\nhttp://imgmak.com/vi&quot; rel=&quot;nofollow&quot; target=&quot;_NEW&quot;&gt;\nhttp://imgmak.com/vi&lt;/a&gt; &lt;a href=&quot;\nhttp://imgmak.com/vj&quot; rel=&quot;nofollow&quot; target=&quot;_NEW&quot;&gt;\nhttp://imgmak.com/vj&lt;/a&gt; &lt;a href=&quot;\nhttp://imgmak.com/vw&quot; rel=&quot;nofollow&quot; target=&quot;_NEW&quot;&gt;\nhttp://imgmak.com/vw&lt;/a&gt; &lt;a href=&quot;\nhttp://imgmak.com/vJ&quot; rel=&quot;nofollow&quot; target=&quot;_NEW&quot;&gt;\nhttp://imgmak.com/vJ&lt;/a&gt; &lt;a href=&quot;\nhttp://imgmak.com/vW&quot; rel=&quot;nofollow&quot; target=&quot;_NEW&quot;&gt;\nhttp://imgmak.com/vW&lt;/a&gt;\n\nINFO:\n\nFormat: MPEG-4\nFormat profile: Base Media\nCodec ID: isom\nFile size: 1.25 GiB\nDuration: 1h 55mn\nOverall bit rate mode: Variable\nOverall bit rate: 1 544 Kbps\nEncoded date: UTC 2015-06-14 10:45:52\nTagged date: UTC 2015-06-14 10:45:52\n\nVideo\nID: 1\nFormat: AVC\nFormat/Info: Advanced Video Codec\nFormat profile: &lt;a class=&quot;__cf_email__&quot; href=&quot;/cdn-cgi/l/email-protection&quot; data-cfemail=&quot;8bc3e2ece3cbc7bfa5ba&quot;&gt;[email&amp;#160;protected]&lt;/a&gt;&lt;script data-cfhash='f9e31' type=&quot;text/javascript&quot;&gt;\n/* &lt;![CDATA[ */!function(){try{var t=&quot;currentScript&quot;in document?document.currentScript:function(){for(var t=document.getElementsByTagName(&quot;script&quot;),e=t.length;e--;)if(t[e].getAttribute(&quot;data-cfhash&quot;))return t[e]}();if(t&amp;&amp;t.previousSibling){var e,r,n,i,c=t.previousSibling,a=c.getAttribute(&quot;data-cfemail&quot;);if(a){for(e=&quot;&quot;,r=parseInt(a.substr(0,2),16),n=2;a.length-n;n+=2)i=parseInt(a.substr(n,2),16)^r,e+=String.fromCharCode(i);e=document.createTextNode(e),c.parentNode.replaceChild(e,c)}t.parentNode.removeChild(t);}}catch(u){}}()/* ]]&gt; */&lt;/script&gt;\nFormat settings, CABAC: Yes\nFormat settings, ReFrames: 3 frames\nCodec ID: avc1\nCodec ID/Info: Advanced Video Coding\nDuration: 1h 55mn\nBit rate mode: Variable\nBit rate: 1 420 Kbps\nMaximum bit rate: 40.0 Mbps\nWidth: 688 pixels\nHeight: 352 pixels\nDisplay aspect ratio: 1.955\nFrame rate mode: Constant\nFrame rate: 25.000 fps\nColor space: YUV\nChroma subsampling: 4:2:0\nBit depth: 8 bits\nScan type: Progressive\nBits/(Pixel*Frame): 0.235\nStream size: 1.15 GiB (92%)\nWriting library: x264 core 146 r2538 121396c\nEncoding settings: cabac=1 / ref=4 / deblock=1:-1:-1 / analyse=0x3:0x113 / me=umh / subme=8 / psy=1 / psy_rd=1.00:0.15 / mixed_ref=1 / me_range=16 / chroma_me=1 / trellis=1 / 8x8dct=1 / cqm=0 / deadzone=21,11 / fast_pskip=1 / chroma_qp_offset=-3 / threads=12 / lookahead_threads=2 / sliced_threads=0 / slices=4 / nr=0 / decimate=1 / interlaced=0 / bluray_compat=0 / constrained_intra=0 / bframes=3 / b_pyramid=1 / b_adapt=2 / b_bias=0 / direct=3 / weightb=1 / open_gop=0 / weightp=0 / keyint=24 / keyint_min=2 / scenecut=40 / intra_refresh=0 / rc_lookahead=24 / rc=2pass / mbtree=1 / bitrate=1420 / ratetol=1.0 / qcomp=0.60 / qpmin=10 / qpmax=51 / qpstep=4 / cplxblur=20.0 / qblur=0.5 / vbv_maxrate=40000 / vbv_bufsize=30000 / nal_hrd=vbr / filler=0 / ip_ratio=1.40 / aq=1:1.00\nEncoded date: UTC 2015-06-14 10:45:52\nTagged date: UTC 2015-06-14 10:47:25\nColor primaries: BT.709\nTransfer characteristics: BT.709\nMatrix coefficients: BT.709\n\nAudio\nID: 2\nFormat: AAC\nFormat/Info: Advanced Audio Codec\nFormat profile: LC\nCodec ID: 40\nDuration: 1h 55mn\nBit rate mode: Variable\nBit rate: 120 Kbps\nMaximum bit rate: 146 Kbps\nChannel count: 2 channels\nChannel positions: Front: L R\nSampling rate: 48.0 KHz\nCompression mode: Lossy\nStream size: 99.5 MiB (8%)\nEncoded date: UTC 2015-06-14 09:24:19\nTagged date: UTC 2015-06-14 10:47:25","torrent":{"xt":"urn:btih:3e70477894e42f456a47f7bc672348c786b9e321","amp;dn":"Jurassic+World+2015+TS+READNFO+x264-MenaceIISociety","amp;tr":["udp%3A%2F%2Ftracker.openbittorrent.com%3A80","udp%3A%2F%2Fopen.demonii.com%3A1337","udp%3A%2F%2Ftracker.coppersurfer.tk%3A6969","udp%3A%2F%2Fexodus.desync.com%3A6969"],"infoHash":"3e70477894e42f456a47f7bc672348c786b9e321","infoHashBuffer":{"type":"Buffer","data":[62,112,71,120,148,228,47,69,106,71,247,188,103,35,72,199,134,185,227,33]},"announce":[],"urlList":[]}}